<?xml version="1.0" encoding="utf-8"?>
<svg version="1.0" width="926.000000pt" height="541.000000pt" viewBox="0 0 926.000000 541.000000" preserveAspectRatio="xMidYMid meet" xmlns="http://www.w3.org/2000/svg">
  <g transform="translate(0.000000,541.000000) scale(0.100000,-0.100000)" fill="#000000" stroke="none">
    <path d="M831 3709 c-208 -41 -427 -170 -552 -326 -79 -98 -89 -117 -89 -168 0 -61 29 -115 76 -142 93 -52 174 -36 234 45 170 230 429 316 695 232 90 -29 160 -74 260 -170 89 -85 118 -98 202 -86 85 11 133 67 133 153 0 58 -17 87 -100 177 -126 134 -283 226 -467 271 -79 20 -122 25 -223 24 -69 -1 -145 -5 -169 -10z" style="fill: rgb(15, 118, 110);"/>
    <path d="M3840 2533 c0 -412 -3 -772 -6 -800 l-7 -53 147 0 146 0 0 34 c0 18 3 53 6 78 l6 44 62 -61 c97 -97 220 -132 362 -102 196 42 340 187 390 393 23 93 23 277 1 364 -53 201 -182 329 -362 361 -130 22 -292 -26 -369 -111 l-36 -40 0 320 0 320 -170 0 -170 0 0 -747z m647 -18 c90 -45 134 -137 134 -282 0 -133 -33 -214 -109 -268 -40 -27 -51 -30 -121 -30 -69 0 -82 3 -119 29 -26 18 -51 47 -67 79 -23 47 -25 62 -25 180 0 157 11 198 67 254 67 67 153 81 240 38z" style="fill: rgb(15, 118, 110);"/>
    <path d="M7040 3209 c-307 -38 -525 -178 -644 -416 -57 -113 -80 -223 -79 -383 1 -237 58 -385 203 -530 127 -128 260 -186 483 -211 159 -17 402 8 572 59 l60 18 3 397 2 397 -280 0 -280 0 0 -130 0 -130 115 0 115 0 0 -164 0 -164 -42 -8 c-24 -4 -83 -7 -133 -7 -282 1 -465 196 -465 496 0 217 85 372 247 451 139 69 352 74 533 13 l69 -23 30 121 c17 67 33 128 36 137 5 11 -11 20 -67 37 -41 12 -99 26 -131 31 -91 15 -266 19 -347 9z" style="fill: rgb(15, 118, 110);"/>
    <path d="M919 3136 c-62 -22 -98 -55 -133 -123 -22 -44 -20 -113 9 -309 14 -92 25 -185 25 -207 0 -28 -23 -89 -80 -213 -44 -96 -80 -178 -80 -183 0 -9 56 -80 175 -221 123 -145 176 -200 196 -200 19 0 57 44 180 210 140 190 159 217 159 230 0 13 -70 156 -123 250 -65 117 -62 89 -43 354 16 219 16 244 2 277 -49 115 -176 175 -287 135z" style="fill: rgb(15, 118, 110);"/>
    <path d="M2350 2787 c-26 -7 -63 -23 -83 -36 -49 -30 -113 -104 -127 -147 -16 -47 -30 -43 -30 10 0 23 -3 71 -6 105 l-7 61 -145 0 -145 0 7 -61 c3 -34 6 -282 6 -550 l0 -489 170 0 170 0 0 308 c0 183 4 322 11 345 26 94 115 149 241 149 l79 -1 -3 157 -3 157 -45 2 c-25 1 -65 -4 -90 -10z" style="fill: rgb(15, 118, 110);"/>
    <path d="M2980 2794 c-146 -18 -320 -73 -320 -101 0 -11 49 -190 55 -201 1 -1 27 9 58 23 119 55 291 68 374 28 40 -19 73 -66 73 -104 0 -26 -1 -26 -97 -33 -232 -15 -386 -77 -474 -188 -48 -61 -69 -130 -69 -227 0 -167 110 -291 283 -321 121 -21 270 20 348 96 40 39 43 38 54 -40 l7 -46 147 0 146 0 -3 348 c-1 191 -7 375 -13 410 -28 179 -115 282 -280 333 -60 19 -220 31 -289 23z m250 -679 c0 -91 -10 -124 -52 -161 -58 -53 -148 -70 -208 -39 -56 29 -78 121 -45 185 29 57 130 98 243 99 l62 1 0 -85z" style="fill: rgb(15, 118, 110);"/>
    <path d="M5510 2794 c-146 -18 -320 -73 -320 -101 0 -11 49 -190 55 -201 1 -1 27 9 58 23 119 55 291 68 374 28 40 -19 73 -66 73 -104 0 -26 -1 -26 -97 -33 -232 -15 -386 -77 -474 -188 -48 -61 -69 -130 -69 -227 0 -167 110 -291 283 -321 121 -21 270 20 348 96 40 39 43 38 54 -40 l7 -46 147 0 146 0 -3 348 c-1 191 -7 375 -13 410 -28 179 -115 282 -280 333 -60 19 -220 31 -289 23z m250 -679 c0 -91 -10 -124 -52 -161 -58 -53 -148 -70 -208 -39 -56 29 -78 121 -45 185 29 57 130 98 243 99 l62 1 0 -85z" style="fill: rgb(15, 118, 110);"/>
    <path d="M8332 2789 c-287 -44 -472 -265 -472 -564 0 -287 175 -502 447 -550 98 -18 138 -18 236 0 210 37 373 180 431 375 9 30 19 98 22 150 7 118 -12 216 -61 316 -60 123 -195 229 -335 262 -69 17 -197 22 -268 11z m171 -242 c118 -50 180 -264 132 -452 -48 -187 -222 -254 -341 -130 -54 56 -75 117 -81 242 -7 123 18 220 70 280 57 65 148 90 220 60z" style="fill: rgb(15, 118, 110);"/>
  </g>
</svg>